<svg xmlns="http://www.w3.org/2000/svg" width="511.999" height="512" viewBox="0 0 511.999 512">
  <g id="linkedin" transform="translate(0 0.001)">
    <path id="Exclusion_1" data-name="Exclusion 1" d="M2079-1994.723a257.878,257.878,0,0,1-51.593-5.2,254.72,254.72,0,0,1-48.054-14.917,256.025,256.025,0,0,1-43.485-23.6,257.861,257.861,0,0,1-37.887-31.26,257.844,257.844,0,0,1-31.26-37.887,256.014,256.014,0,0,1-23.6-43.485,254.725,254.725,0,0,1-14.917-48.054,257.886,257.886,0,0,1-5.2-51.593,257.894,257.894,0,0,1,5.2-51.593,254.725,254.725,0,0,1,14.917-48.054,256.023,256.023,0,0,1,23.6-43.485,257.849,257.849,0,0,1,31.26-37.887,257.856,257.856,0,0,1,37.887-31.26,256.017,256.017,0,0,1,43.485-23.6,254.719,254.719,0,0,1,48.054-14.917,257.894,257.894,0,0,1,51.593-5.2,257.9,257.9,0,0,1,51.593,5.2,254.736,254.736,0,0,1,48.054,14.917,256.041,256.041,0,0,1,43.485,23.6,257.844,257.844,0,0,1,37.887,31.26,257.827,257.827,0,0,1,31.26,37.887,256.007,256.007,0,0,1,23.6,43.485,254.736,254.736,0,0,1,14.917,48.054,257.907,257.907,0,0,1,5.2,51.593,257.9,257.9,0,0,1-5.2,51.593,254.731,254.731,0,0,1-14.917,48.054,256.025,256.025,0,0,1-23.6,43.485,257.843,257.843,0,0,1-31.26,37.887,257.849,257.849,0,0,1-37.887,31.26,256.023,256.023,0,0,1-43.485,23.6,254.719,254.719,0,0,1-48.054,14.917A257.883,257.883,0,0,1,2079-1994.723Zm60.776-269.936a31.539,31.539,0,0,1,14.189,3.024,25.173,25.173,0,0,1,9.614,8.508c4.769,7,7.187,17.123,7.187,30.076v98.471h61.191v-105.544c0-51.86-26.333-82.822-70.441-82.822-31.37,0-45.951,16.247-55.149,30.4v-26.079h-61.2c.8,16.895.033,177.221,0,184.038h61.2v-102.787c0-6.8.644-11.538,2.026-14.913a38.226,38.226,0,0,1,11.016-15.315A31.417,31.417,0,0,1,2139.776-2264.659Zm-189.616-43.964v184.044h61.173v-184.044Zm30.991-88.714c-20.388,0-34.627,13.074-34.627,31.793,0,18.431,14.225,31.808,33.824,31.808h.4c20.38,0,34.614-13.08,34.614-31.808C2014.931-2384.561,2001.184-2397.337,1981.151-2397.337Zm125.216,115.4h-.406a3.255,3.255,0,0,1,.211-.316c.064-.088.136-.188.195-.286v.6Z" transform="translate(-1823 2506.722)" fill="#fff"/>
  </g>
</svg>
