<svg xmlns="http://www.w3.org/2000/svg" width="512" height="512" viewBox="0 0 512 512">
  <path id="tik-tok" d="M256,0C114.637,0,0,114.637,0,256S114.637,512,256,512,512,397.363,512,256,397.363,0,256,0ZM384.43,195.873v34.663a120.958,120.958,0,0,1-74.015-25.152l.246,106.693a89.372,89.372,0,0,1-26.811,63.6,91.238,91.238,0,0,1-50.968,25.49,93.951,93.951,0,0,1-13.766,1.012,91.542,91.542,0,0,1-56.109-18.97,93.08,93.08,0,0,1-8.624-7.532,89.7,89.7,0,0,1-4.049-123.7,91.534,91.534,0,0,1,68.782-30.762,93.952,93.952,0,0,1,13.766,1.018v48.468a43.154,43.154,0,1,0,29.682,41l.057-71.447V109.82h47.736a73.89,73.89,0,0,0,73.935,73.2c.011,0,.149,0,.137-.011v12.861Z" fill="#fff"/>
</svg>
