<svg id="logotipo-de-youtube" xmlns="http://www.w3.org/2000/svg" width="512" height="512" viewBox="0 0 512 512">
  <g id="Group_2" data-name="Group 2">
    <path id="Path_6" data-name="Path 6" d="M25.676,67.039h20.3V176.892h19.2V67.039H85.848V49.047H25.676Z" transform="translate(108.811 207.854)" fill="#fff"/>
    <path id="Path_7" data-name="Path 7" d="M85.072,80.473c-6.348,0-12.272,3.467-17.84,10.329V49.046H49.973V176.9H67.232v-9.229c5.777,7.129,11.7,10.544,17.84,10.544,6.867,0,11.487-3.614,13.791-10.706,1.158-4.038,1.749-10.381,1.749-19.2V110.376c0-9.02-.592-15.315-1.749-19.144C96.564,84.087,91.933,80.473,85.072,80.473ZM83.343,149.66c0,8.611-2.525,12.854-7.511,12.854-2.834,0-5.72-1.357-8.606-4.248V100.209C70.113,97.355,73,96,75.832,96c4.981,0,7.511,4.41,7.511,13Z" transform="translate(211.778 207.85)" fill="#fff"/>
    <path id="Path_8" data-name="Path 8" d="M70.018,128.069c-3.829,5.411-7.448,8.077-10.916,8.077-2.3,0-3.619-1.357-4.038-4.038a53.308,53.308,0,0,1-.157-6.7V55.268H37.643v75.315c0,6.731.581,11.277,1.524,14.168,1.734,4.829,5.568,7.092,11.12,7.092,6.354,0,12.869-3.834,19.731-11.7v10.392H87.293V55.268H70.018Z" transform="translate(159.525 234.218)" fill="#fff"/>
    <path id="Path_9" data-name="Path 9" d="M53.391,92.838c5.62,0,8.318-4.457,8.318-13.362V38.982c0-8.91-2.7-13.346-8.318-13.346s-8.328,4.442-8.328,13.346V79.476C45.063,88.385,47.766,92.838,53.391,92.838Z" transform="translate(190.97 108.642)" fill="#fff"/>
    <path id="Path_10" data-name="Path 10" d="M256,0C114.615,0,0,114.615,0,256S114.615,512,256,512,512,397.385,512,256,397.385,0,256,0Zm28.473,119.737h17.395v70.879c0,4.091,0,6.212.21,6.783.382,2.7,1.755,4.086,4.091,4.086,3.488,0,7.15-2.7,11.02-8.166V119.737h17.442V216H317.189v-10.5c-6.945,7.962-13.566,11.822-19.93,11.822-5.615,0-9.491-2.278-11.24-7.15-.964-2.917-1.545-7.522-1.545-14.315V119.737Zm-65.882,31.39c0-10.292,1.749-17.814,5.458-22.68,4.824-6.584,11.618-9.873,20.312-9.873q13.105,0,20.349,9.873c3.656,4.861,5.406,12.388,5.406,22.68v33.711c0,10.235-1.749,17.824-5.406,22.638q-7.236,9.852-20.349,9.852c-8.695,0-15.488-3.284-20.312-9.852-3.708-4.814-5.458-12.408-5.458-22.638ZM171.943,86.823l13.734,50.729,13.194-50.729h19.563l-23.272,76.865v52.321H175.824V163.688c-1.755-9.271-5.625-22.853-11.832-40.871-4.075-11.989-8.323-24.016-12.4-35.995h20.349Zm221.87,306.336a36.089,36.089,0,0,1-30.872,28.064c-35.424,3.955-71.256,3.976-106.957,3.955-35.685.021-71.539,0-106.952-3.955a36.065,36.065,0,0,1-30.867-28.064c-4.981-21.627-4.981-45.245-4.981-67.516s.063-45.884,5.039-67.516a36.058,36.058,0,0,1,30.861-28.064c35.418-3.955,71.266-3.976,106.962-3.955,35.685-.021,71.533,0,106.952,3.955a36.1,36.1,0,0,1,30.882,28.064c4.966,21.632,4.934,45.245,4.934,67.516S398.794,371.531,393.813,393.158Z" fill="#fff"/>
    <path id="Path_11" data-name="Path 11" d="M88.211,55.046c-8.831,0-15.687,3.242-20.674,9.763C63.876,69.628,62.2,77.076,62.2,87.254v33.37c0,10.125,1.87,17.625,5.547,22.4,4.981,6.505,11.858,9.758,20.889,9.758,9.014,0,16.091-3.41,20.868-10.329a24.587,24.587,0,0,0,4.033-10.345c.162-1.729.367-5.557.367-11.125v-2.509H96.3a113.09,113.09,0,0,1-.377,11.691c-.985,4.615-3.467,6.919-7.715,6.919-5.929,0-8.831-4.4-8.831-13.21v-16.9h34.528V87.243c0-10.177-1.723-17.625-5.343-22.444C103.741,58.293,96.874,55.046,88.211,55.046Zm8.443,37.566H79.39V83.8q0-13.215,8.663-13.215c5.709,0,8.6,4.41,8.6,13.215Z" transform="translate(263.616 233.277)" fill="#fff"/>
  </g>
</svg>
