<svg id="screenshot" viewBox="0 0 24.018149170641074 24.00003752114003" width="17.018149170641074" height="17.00003752114003" version="1.1" xmlns:xlink="http://www.w3.org/1999/xlink" xmlns="http://www.w3.org/2000/svg"><g id="shape-c417f1e0-c9d6-11eb-8d52-dd542793891e"><g fill="#00fa0c"><g id="shape-c417f1e1-c9d6-11eb-8d52-dd542793891e"><path d="M0.4391796806244841,0.45796949001663734C1.0249294578531973,-0.12760341748276005,1.974429903395766,-0.12760341748276005,2.560179680624479,0.45796949001663734L11.99967968062451,9.89746949001659L21.439179680624505,0.45796949001663734C21.815791386016798,0.068034613336863,22.373496518837797,-0.08834940578105943,22.89794066646445,0.04892375514219793C23.422384814091117,0.18619691606528477,23.831952254575796,0.5957643565499211,23.96922541549891,1.1202085041766168C24.10649857642204,1.6446526518032556,23.95011455730419,2.2023577846243256,23.560179680624515,2.5789694900165614L14.120679680624512,12.018469490016571L23.560179680624515,21.457969490016637C24.128637994886645,22.046537820463072,24.120508241470134,22.982096655548162,23.541907543813153,23.56069735320517C22.963306846156172,24.139298050862294,22.027748011070983,24.14742780427872,21.439179680624505,23.57896949001656L11.99967968062451,14.139469490016495L2.560179680624479,23.57896949001656C1.9716113501780086,24.14742780427872,1.0360525150928126,24.139298050862294,0.45745181743584595,23.56069735320517C-0.12114888022114911,22.982096655548162,-0.1292786336376608,22.046537820463072,0.4391796806244841,21.457969490016637L9.878679680624508,12.018469490016571L0.4391796806244841,2.5789694900165614C-0.14639322687481382,1.993219712787834,-0.14639322687481382,1.0437192672453648,0.4391796806244841,0.45796949001663734ZL0.4391796806244841,0.45796949001663734Z" style="fill: rgb(1, 245, 12); fill-opacity: 1; stroke-width: 1; stroke: rgb(1, 245, 12); stroke-opacity: 1;"/></g><g id="shape-6b9c45c0-c9d6-11eb-8d52-dd542793891e"><path d="M2,2L10.000000000000007,10" style="fill: transparent; stroke-width: 1; stroke: rgb(0, 0, 0); stroke-opacity: 1;"/></g><g id="shape-c77e1cc1-c9d5-11eb-8d52-dd542793891e"><path d="M21.999999989091677,1.999999989091691L1.9999999890916982,21.999999989091634" style="fill: rgb(0, 0, 0); fill-opacity: 1; stroke-width: 1; stroke: rgb(0, 0, 0); stroke-opacity: 1;"/></g><g id="shape-9121ae20-c9d6-11eb-8d52-dd542793891e"><path d="M21.99999998909169,21.999999989091634L14.000000000000014,14" style="fill: transparent; stroke-width: 1; stroke: rgb(0, 0, 0); stroke-opacity: 1;"/></g></g></g></svg>