<svg width="18" height="17" viewBox="0 0 18 17" fill="none" xmlns="http://www.w3.org/2000/svg">
<g clip-path="url(#clip0_19:2)">
<path d="M0.31371 0.324395C0.728617 -0.0903858 1.40118 -0.0903858 1.81609 0.324395L8.5024 7.01071L15.1887 0.324395C15.4555 0.0481912 15.8505 -0.0625809 16.222 0.0346544C16.5935 0.13189 16.8836 0.422 16.9808 0.793482C17.0781 1.16496 16.9673 1.56 16.6911 1.82677L10.0048 8.51309L16.6911 15.1994C17.0938 15.6163 17.088 16.279 16.6782 16.6888C16.2683 17.0987 15.6056 17.1044 15.1887 16.7018L8.5024 10.0155L1.81609 16.7018C1.39918 17.1044 0.736496 17.0987 0.326653 16.6888C-0.0831893 16.279 -0.0889479 15.6163 0.31371 15.1994L7.00003 8.51309L0.31371 1.82677C-0.101071 1.41186 -0.101071 0.739302 0.31371 0.324395Z" fill="#E84C22" stroke="#E84C22" stroke-width="0.708334"/>
<path d="M1.41931 1.41667L7.08598 7.08334Z" fill="black"/>
<path d="M1.41931 1.41667L7.08598 7.08334" stroke="black" stroke-width="0.708334"/>
<path d="M15.586 1.41667L1.41931 15.5833Z" fill="black"/>
<path d="M15.586 1.41667L1.41931 15.5833" stroke="black" stroke-width="0.708334"/>
<path d="M15.586 15.5833L9.91931 9.91667Z" fill="black"/>
<path d="M15.586 15.5833L9.91931 9.91667" stroke="black" stroke-width="0.708334"/>
</g>
<defs>
<clipPath id="clip0_19:2">
<rect width="17.0181" height="17" fill="white"/>
</clipPath>
</defs>
</svg>
