<svg id="screenshot" viewBox="-0.4067798370520279 -6.304520638877875e-8 60.4909410935184 60.441317687998605" width="100.4909410935184" height="100.441317687998605" version="1.1" xmlns:xlink="http://www.w3.org/1999/xlink" xmlns="http://www.w3.org/2000/svg"><rect x="0" y="0" width="60" height="60" class="frame-background" style="fill: rgb(255, 255, 255); fill-opacity: 0;"/><g id="shape-412252e0-c9ee-11eb-8d52-dd542793891e"><g><g id="shape-a9cb7ed0-c9ed-11eb-8d52-dd542793891e"><rect rx="7" ry="7" x="3" y="7.947368395202886" transform="matrix(1,-1.6543612251060553e-23,-1.9852334701272664e-23,1.0000000000000013,0,-3.907985046680551e-14)" width="54" height="45" style="fill: rgb(161, 161, 161); fill-opacity: 0; stroke-width: 2; stroke: rgb(255, 255, 255); stroke-opacity: 1;"/></g><g id="shape-cf4fd5c0-c9ed-11eb-8d52-dd542793891e"><path d="M4.1874999706170115,11.32790601678306L28.937499940347664,28.051124788200354L54.812499877259555,11.327906069211451" style="fill: transparent; stroke-width: 2; stroke: rgb(255, 255, 255); stroke-opacity: 1;"/></g><g id="shape-e8a1ebd1-c9ed-11eb-8d52-dd542793891e"><path d="M20.999999969389336,37.19736833810509L42.17647055762464,37.19736833553844M20.999999969389364,41.69736833810509L42.17647055762464,41.69736833553844M20.999999969389364,47.32236833810509L42.17647055762467,47.32236833553844" style="fill: transparent; stroke-width: 2; stroke: rgb(255, 255, 255); stroke-opacity: 1;"/></g><g id="shape-05e33d70-c9ee-11eb-8d52-dd542793891e"><ellipse cx="17" cy="36.947368395202886" rx="1" ry="1" transform="matrix(1.000000027777758,-3.8397244610465986e-7,-2.2668196472745734e-17,0.9999999999999938,-4.722218882591278e-7,0.000006527531809297216)" style="fill: rgb(255, 255, 255); fill-opacity: 1;"/></g><g id="shape-25f82170-c9ee-11eb-8d52-dd542793891e"><ellipse cx="17" cy="41.947368395202886" rx="1" ry="1" transform="matrix(1.0000000277777712,-3.66519153099908e-7,-1.745329254261135e-8,1.0000000000000007,2.5989757901356825e-7,0.000006230825576380994)" style="fill: rgb(255, 255, 255); fill-opacity: 1;"/></g><g id="shape-29c507f0-c9ee-11eb-8d52-dd542793891e"><ellipse cx="17" cy="46.947368395202886" rx="1" ry="1" transform="matrix(1.0000000277777716,-3.839724461046651e-7,-2.2668196472746273e-17,0.9999999999999686,-4.7222211918551693e-7,0.000006527533059852431)" style="fill: rgb(255, 255, 255); fill-opacity: 1;"/></g></g></g></svg>