<svg id="screenshot" viewBox="-0.5000000000000107 0 148 32.0000002443461" width="120" height="25" version="1.1" xmlns:xlink="http://www.w3.org/1999/xlink" xmlns="http://www.w3.org/2000/svg"><g id="shape-81381510-c82a-11eb-bbb5-b1e817b96973"><g><g id="shape-81381511-c82a-11eb-bbb5-b1e817b96973"><path d="M-0.5,29L9.5,0L36.5,0L147.5,0L136.5,29L-0.5,29Z" style="fill: rgb(0, 250, 12); fill-opacity: 1; stroke-width: 2; stroke: rgb(0, 250, 12); stroke-opacity: 1;"/></g><g id="shape-81383c20-c82a-11eb-bbb5-b1e817b96973"><path d="M-0.5000000000000107,29L8.35135135135134,0L32.249999999999986,0L130.5,0L120.76351351351349,29L-0.5000000000000107,29Z" style="fill: rgb(0, 0, 0); fill-opacity: 1; stroke-width: 2; stroke: rgb(2, 2, 2); stroke-opacity: 1;"/></g><g id="shape-d409dd50-c82a-11eb-bbb5-b1e817b96973"><g><path d="M1 808 c0 -207 4 -306 10 -293 5 11 45 112 88 225 l78 205 38 0 37 0
94 -244 c52 -134 94 -247 94 -252 0 -5 -17 -9 -38 -9 -38 0 -38 0 -61 65 l-23
65 -103 0 -103 0 -23 -65 c-22 -62 -24 -65 -56 -65 l-33 0 0 -140 0 -140 1311
2 1311 3 129 380 129 380 0 98 0 97 -1440 0 -1440 0 1 -312z m2019 -98 l0
-270 -35 0 c-19 0 -35 5 -35 10 0 6 -13 4 -30 -5 -41 -21 -118 -19 -156 4 -50
30 -69 82 -69 186 0 77 3 95 23 128 32 51 72 70 136 65 28 -3 59 -8 69 -12 15
-7 17 0 17 78 l0 86 40 0 40 0 0 -270z m-1300 105 c17 -9 30 -11 30 -5 0 5 16
10 35 10 l35 0 0 -207 c0 -233 -6 -258 -69 -300 -85 -57 -286 1 -227 66 17 19
18 19 53 -5 48 -33 105 -32 138 1 30 29 35 82 8 69 -10 -4 -43 -9 -73 -11
-109 -7 -155 53 -155 202 0 77 3 95 23 128 13 20 36 44 50 52 36 19 116 19
152 0z m428 -5 c41 -25 71 -89 72 -152 l0 -48 -130 0 c-71 0 -130 -2 -130 -5
0 -2 7 -23 16 -45 28 -70 107 -92 163 -45 26 23 33 24 50 13 26 -16 26 -33 1
-58 -30 -30 -63 -40 -129 -40 -109 0 -171 70 -171 196 0 84 27 146 80 182 44
30 131 31 178 2z m413 10 c41 -22 49 -60 49 -225 l0 -155 -35 0 -35 0 0 139
c0 125 -2 141 -21 165 -27 34 -68 34 -108 0 l-31 -26 0 -139 0 -139 -40 0 -40
0 0 190 0 190 40 0 c22 0 40 -5 40 -10 0 -6 12 -4 28 4 31 18 124 21 153 6z
m806 -23 c27 -27 28 -31 34 -175 3 -81 9 -155 13 -164 7 -16 2 -18 -32 -18
-23 0 -44 4 -47 10 -4 6 -17 4 -35 -5 -41 -21 -118 -19 -157 5 -66 40 -66 145
0 192 25 18 49 24 110 27 69 3 77 5 77 23 0 22 -18 60 -34 70 -33 22 -116 -5
-116 -38 0 -10 -12 -14 -41 -14 -40 0 -41 1 -34 27 16 66 68 95 162 91 64 -3
76 -7 100 -31z M1805 746 c-22 -22 -45 -81 -45 -116 0 -35 23 -94 45 -116 30
-30 73 -31 109 -3 25 20 26 24 26 119 0 95 -1 99 -26 119 -36 28 -79 27 -109
-3z M617 759 c-67 -39 -66 -222 2 -259 31 -16 66 -12 95 11 25 20 26 24 26
119 0 95 -1 99 -26 119 -29 23 -68 27 -97 10z M999 741 c-16 -16 -29 -39 -29
-50 0 -20 6 -21 89 -21 l90 0 -10 33 c-19 70 -89 89 -140 38z M2210 602 c-44
-21 -52 -60 -19 -93 46 -46 139 1 139 73 l0 38 -42 0 c-24 0 -59 -8 -78 -18z
M177 747 c-20 -56 -37 -105 -37 -109 0 -5 34 -8 75 -8 41 0 75 4 75 8 0 8 -70
203 -74 209 -1 1 -19 -44 -39 -100z" transform="translate(53.99999972937934, 4) scale(0.25, 0.25) translate(0.000000,112.000000) scale(0.100000,-0.100000)" fill="#000000" stroke="none"/><path d="M1950 879 l0 -100 -29 20 c-20 15 -45 21 -79 21 -43 0 -56 -5 -85
-33 -77 -72 -78 -236 -1 -312 31 -31 40 -35 88 -35 38 0 61 6 79 20 32 25 37
25 37 0 0 -15 7 -20 25 -20 l25 0 0 270 0 270 -30 0 -30 0 0 -101z m-26 -120
c25 -20 26 -24 26 -129 0 -106 -1 -109 -27 -130 -36 -29 -108 -23 -135 10 -39
48 -46 150 -15 217 23 52 104 69 151 32z M187 938 c-47 -121 -187 -489 -187
-493 0 -3 13 -5 28 -5 26 0 30 5 51 70 l22 70 113 0 114 0 23 -67 c21 -60 27
-68 52 -71 15 -2 27 -1 27 2 0 4 -145 385 -185 489 -8 20 -50 23 -58 5z m78
-191 l42 -112 -43 -3 c-24 -2 -65 -2 -92 0 l-49 3 39 105 c21 58 41 111 43
119 8 22 16 8 60 -112z M555 787 c-75 -75 -75 -237 1 -312 31 -31 40 -35 88
-35 39 0 60 6 80 21 l26 20 0 -46 c0 -64 -31 -95 -96 -95 -29 0 -59 7 -79 20
-28 17 -34 18 -44 6 -9 -11 -6 -18 15 -35 52 -41 166 -41 211 0 48 44 53 73
53 289 l0 200 -25 0 c-18 0 -25 -5 -25 -20 0 -11 -3 -20 -6 -20 -3 0 -17 9
-31 20 -19 14 -41 20 -80 20 -49 0 -59 -4 -88 -33z m169 -28 c25 -20 26 -24
26 -129 0 -105 -1 -109 -26 -129 -50 -39 -130 -18 -154 39 -16 40 -16 141 0
181 24 57 105 77 154 38z M979 797 c-19 -12 -44 -42 -57 -67 -19 -37 -23 -57
-20 -117 4 -80 20 -111 78 -150 48 -33 132 -32 183 2 20 14 37 30 37 36 0 20
-30 20 -56 0 -39 -31 -104 -28 -143 5 -25 21 -51 74 -51 107 0 4 59 7 130 7
l130 0 0 38 c-1 48 -30 113 -65 140 -39 31 -120 30 -166 -1z m140 -34 c12 -10
26 -35 30 -55 l9 -38 -100 0 -100 0 6 33 c13 67 103 102 155 60z M1310 630 l0
-190 30 0 30 0 0 144 0 144 31 26 c40 34 91 35 124 1 24 -23 25 -28 25 -170
l0 -145 25 0 25 0 0 150 c0 200 -15 230 -113 230 -31 0 -55 -8 -81 -25 l-36
-24 0 24 c0 21 -5 25 -30 25 l-30 0 0 -190z M2174 801 c-30 -19 -64 -57 -64
-73 0 -5 14 -8 30 -8 19 0 30 5 30 14 0 24 42 46 86 46 34 0 47 -5 63 -26 12
-15 21 -39 21 -54 0 -26 -2 -27 -80 -37 -92 -12 -126 -31 -146 -80 -19 -43 -5
-93 33 -123 35 -28 120 -28 156 0 31 25 33 25 40 0 4 -14 14 -20 35 -20 29 0
30 1 21 38 -5 20 -9 90 -9 156 l0 118 -34 34 c-31 31 -39 34 -92 34 -40 0 -69
-6 -90 -19z m166 -220 c0 -42 -4 -53 -27 -70 -71 -57 -157 -29 -151 48 2 30 9
39 38 53 20 10 58 18 88 18 l52 0 0 -49z" transform="translate(53.99999972937934, 4) scale(0.25, 0.25) translate(0.000000,112.000000) scale(0.100000,-0.100000)" fill="#ffffff" stroke="none"/></g></g><g id="shape-39158540-c82c-11eb-bbb5-b1e817b96973"><g stroke="white" fill="none" stroke-linejoin="round" width="24" stroke-linecap="round" stroke-width="2" class="feather feather-calendar" height="24"><g id="shape-3915d360-c82c-11eb-bbb5-b1e817b96973"><rect rx="2" ry="2" x="26" y="6" transform="matrix(1,0,0,1.0000000000000018,0,-2.4868995751603507e-14)" width="16" height="16"/></g><g id="shape-39166fa0-c82c-11eb-bbb5-b1e817b96973"><path d="M37.846250000000005,4L37.846250000000005,7.599999999999994"/></g><g id="shape-391696b0-c82c-11eb-bbb5-b1e817b96973"><path d="M30.55625,4L30.55625,7.599999999999994"/></g><g id="shape-3916bdc0-c82c-11eb-bbb5-b1e817b96973"><path d="M26,11.199999999999989L41.37734375,11.199999999999989"/></g></g></g></g></g></svg>